<mxfile host="Electron" modified="2023-12-20T16:53:23.034Z" agent="Mozilla/5.0 (X11; Linux x86_64) AppleWebKit/537.36 (KHTML, like Gecko) draw.io/22.1.2 Chrome/114.0.5735.289 Electron/25.9.4 Safari/537.36" etag="yWhVfxqK9vCWVfqreddN" version="22.1.2" type="device">
  <diagram name="Deep Sleep Flow Chart" id="fo18u6Ch1KVScq3Fo-Wy">
    <mxGraphModel dx="1903" dy="1197" grid="1" gridSize="10" guides="1" tooltips="1" connect="1" arrows="1" fold="1" page="1" pageScale="1" pageWidth="800" pageHeight="350" background="#999999" math="0" shadow="0">
      <root>
        <object label="" description="Flow Chart of Deep Sleep Behavior" rev="1.0" id="0">
          <mxCell />
        </object>
        <object label="Title Block" id="1">
          <mxCell style="locked=1;" parent="0" />
        </object>
        <mxCell id="h7L3MlKvrl_dhOmhB3lf-10" value="Prepared with: draw.io v22.0.0" style="strokeWidth=1;shadow=0;dashed=0;align=center;html=1;shape=mxgraph.mockup.text.textBox;fontColor=#666666;align=left;fontSize=17;spacingLeft=4;spacingTop=-3;whiteSpace=wrap;strokeColor=#333333;mainText=;fillColor=none;fontFamily=Open Sans;movable=1;resizable=1;rotatable=1;deletable=1;editable=1;locked=0;connectable=1;" parent="1" vertex="1">
          <mxGeometry x="220" y="300" width="280" height="30" as="geometry" />
        </mxCell>
        <object label="&lt;div align=&quot;left&quot;&gt;Sheet %pagenumber%/%pagecount%&lt;/div&gt;" placeholders="1" id="h7L3MlKvrl_dhOmhB3lf-12">
          <mxCell style="strokeWidth=1;shadow=0;dashed=0;align=left;html=1;shape=mxgraph.mockup.text.textBox;fontColor=#666666;align=left;fontSize=17;spacingLeft=4;spacingTop=-3;whiteSpace=wrap;strokeColor=#333333;mainText=;fillColor=none;fontFamily=Open Sans;movable=1;resizable=1;rotatable=1;deletable=1;editable=1;locked=0;connectable=1;" parent="1" vertex="1">
            <mxGeometry x="60" y="300" width="160" height="30" as="geometry" />
          </mxCell>
        </object>
        <object label="Date: &lt;font style=&quot;font-size: 17px;&quot;&gt;%date{ddd mmm dd yyyy HH:MM:ss}%&lt;/font&gt;" placeholders="1" id="h7L3MlKvrl_dhOmhB3lf-13">
          <mxCell style="strokeWidth=1;shadow=0;dashed=0;align=center;html=1;shape=mxgraph.mockup.text.textBox;fontColor=#666666;align=left;fontSize=17;spacingLeft=4;spacingTop=-3;whiteSpace=wrap;strokeColor=#333333;mainText=;fillColor=none;fontFamily=Open Sans;movable=1;resizable=1;rotatable=1;deletable=1;editable=1;locked=0;connectable=1;" parent="1" vertex="1">
            <mxGeometry x="500" y="300" width="280" height="30" as="geometry" />
          </mxCell>
        </object>
        <object label="&lt;b&gt;Title: %page%&lt;/b&gt;" placeholders="1" id="h7L3MlKvrl_dhOmhB3lf-14">
          <mxCell style="strokeWidth=1;shadow=0;dashed=0;align=center;html=1;shape=mxgraph.mockup.text.textBox;fontColor=#666666;align=left;fontSize=17;spacingLeft=4;spacingTop=-3;whiteSpace=wrap;strokeColor=#333333;mainText=;fillColor=none;fontFamily=Open Sans;movable=1;resizable=1;rotatable=1;deletable=1;editable=1;locked=0;connectable=1;" parent="1" vertex="1">
            <mxGeometry x="60" y="240" width="720" height="30" as="geometry" />
          </mxCell>
        </object>
        <object label="Filename: %filename%" placeholders="1" id="h7L3MlKvrl_dhOmhB3lf-15">
          <mxCell style="strokeWidth=1;shadow=0;dashed=0;align=center;html=1;shape=mxgraph.mockup.text.textBox;fontColor=#666666;align=left;fontSize=17;spacingLeft=4;spacingTop=-3;whiteSpace=wrap;strokeColor=#333333;mainText=;fillColor=none;fontFamily=Open Sans;movable=1;resizable=1;rotatable=1;deletable=1;editable=1;locked=0;connectable=1;" parent="1" vertex="1">
            <mxGeometry x="60" y="270" width="440" height="30" as="geometry" />
          </mxCell>
        </object>
        <object label="&lt;div align=&quot;left&quot;&gt;%description%&lt;/div&gt;" placeholders="1" id="h7L3MlKvrl_dhOmhB3lf-16">
          <mxCell style="strokeWidth=1;shadow=0;dashed=0;html=1;shape=mxgraph.mockup.text.textBox;fontColor=#666666;align=left;verticalAlign=top;fontSize=12;spacingLeft=4;spacingTop=-3;whiteSpace=wrap;strokeColor=#333333;mainText=;fillColor=none;fontFamily=Open Sans;movable=1;resizable=1;rotatable=1;deletable=1;editable=1;locked=0;connectable=1;" parent="1" vertex="1">
            <mxGeometry x="60" y="200" width="720" height="40" as="geometry" />
          </mxCell>
        </object>
        <object label="&lt;b&gt;Rev: %rev%&lt;br&gt;&lt;/b&gt;" placeholders="1" id="EyKvBmyPNv_MzgSUc5b6-1">
          <mxCell style="strokeWidth=1;shadow=0;dashed=0;align=center;html=1;shape=mxgraph.mockup.text.textBox;fontColor=#666666;align=left;fontSize=17;spacingLeft=4;spacingTop=-3;whiteSpace=wrap;strokeColor=#333333;mainText=;fillColor=none;fontFamily=Open Sans;movable=1;resizable=1;rotatable=1;deletable=1;editable=1;locked=0;connectable=1;" parent="1" vertex="1">
            <mxGeometry x="500" y="270" width="280" height="30" as="geometry" />
          </mxCell>
        </object>
        <object label="Drawing Frame" id="2jkEU8j2_UPUL1MGRyPS-1">
          <mxCell style="locked=1;" parent="0" />
        </object>
        <mxCell id="2jkEU8j2_UPUL1MGRyPS-2" value="" style="rounded=0;whiteSpace=wrap;html=1;fillColor=none;strokeWidth=3;movable=1;resizable=1;rotatable=1;deletable=1;editable=1;locked=0;connectable=1;" parent="2jkEU8j2_UPUL1MGRyPS-1" vertex="1">
          <mxGeometry x="-100" y="-10" width="880" height="340" as="geometry" />
        </mxCell>
        <object label="Document" id="NbdiYjX3MhI7OpqD2NvG-1">
          <mxCell parent="0" />
        </object>
        <mxCell id="fzffGFe7_WvlfE_VzDE6-1" value="S" style="strokeWidth=2;html=1;shape=mxgraph.flowchart.start_2;whiteSpace=wrap;fillColor=#E6E6E6;fontFamily=Open Sans;strokeColor=#666666;fontColor=#333333;" parent="NbdiYjX3MhI7OpqD2NvG-1" vertex="1">
          <mxGeometry x="-70" y="30" width="40" height="40" as="geometry" />
        </mxCell>
        <mxCell id="fzffGFe7_WvlfE_VzDE6-4" value="RTC&lt;br&gt;RAM" style="shape=internalStorage;whiteSpace=wrap;html=1;dx=15;dy=15;rounded=1;arcSize=8;strokeWidth=2;fillColor=#e1d5e7;fontFamily=Open Sans;strokeColor=#9673a6;" parent="NbdiYjX3MhI7OpqD2NvG-1" vertex="1">
          <mxGeometry x="415" y="100" width="70" height="70" as="geometry" />
        </mxCell>
        <mxCell id="30TDII5LsR__wAe13-P4-7" style="edgeStyle=orthogonalEdgeStyle;rounded=0;orthogonalLoop=1;jettySize=auto;html=1;dashed=1;" edge="1" parent="NbdiYjX3MhI7OpqD2NvG-1" source="fzffGFe7_WvlfE_VzDE6-9" target="30TDII5LsR__wAe13-P4-5">
          <mxGeometry relative="1" as="geometry" />
        </mxCell>
        <mxCell id="fzffGFe7_WvlfE_VzDE6-9" value="Deep Sleep" style="strokeWidth=2;html=1;shape=mxgraph.flowchart.terminator;whiteSpace=wrap;fillColor=#E6E6E6;fontFamily=Open Sans;dashed=1;strokeColor=#666666;fontColor=#333333;" parent="NbdiYjX3MhI7OpqD2NvG-1" vertex="1">
          <mxGeometry x="410" y="29.999999999999993" width="80" height="40" as="geometry" />
        </mxCell>
        <mxCell id="fzffGFe7_WvlfE_VzDE6-23" value="" style="edgeStyle=orthogonalEdgeStyle;rounded=0;orthogonalLoop=1;jettySize=auto;html=1;fontFamily=Open Sans;" parent="NbdiYjX3MhI7OpqD2NvG-1" source="fzffGFe7_WvlfE_VzDE6-1" target="fzffGFe7_WvlfE_VzDE6-25" edge="1">
          <mxGeometry relative="1" as="geometry">
            <mxPoint x="-30" y="40.29" as="sourcePoint" />
            <mxPoint y="40" as="targetPoint" />
          </mxGeometry>
        </mxCell>
        <mxCell id="fzffGFe7_WvlfE_VzDE6-29" style="edgeStyle=orthogonalEdgeStyle;rounded=0;orthogonalLoop=1;jettySize=auto;html=1;dashed=1;fontFamily=Open Sans;" parent="NbdiYjX3MhI7OpqD2NvG-1" source="30TDII5LsR__wAe13-P4-3" target="fzffGFe7_WvlfE_VzDE6-4" edge="1">
          <mxGeometry relative="1" as="geometry">
            <Array as="points">
              <mxPoint x="190" y="135" />
            </Array>
          </mxGeometry>
        </mxCell>
        <mxCell id="30TDII5LsR__wAe13-P4-2" style="edgeStyle=orthogonalEdgeStyle;rounded=0;orthogonalLoop=1;jettySize=auto;html=1;" edge="1" parent="NbdiYjX3MhI7OpqD2NvG-1" source="fzffGFe7_WvlfE_VzDE6-25" target="30TDII5LsR__wAe13-P4-3">
          <mxGeometry relative="1" as="geometry">
            <mxPoint x="220" y="-130" as="targetPoint" />
          </mxGeometry>
        </mxCell>
        <mxCell id="fzffGFe7_WvlfE_VzDE6-25" value="deep_sleep()" style="rounded=1;whiteSpace=wrap;html=1;absoluteArcSize=1;arcSize=14;strokeWidth=2;fillColor=#ffe6cc;fontFamily=Open Sans;strokeColor=#d79b00;" parent="NbdiYjX3MhI7OpqD2NvG-1" vertex="1">
          <mxGeometry y="19.999999999999993" width="100" height="60" as="geometry" />
        </mxCell>
        <mxCell id="30TDII5LsR__wAe13-P4-6" style="edgeStyle=orthogonalEdgeStyle;rounded=0;orthogonalLoop=1;jettySize=auto;html=1;" edge="1" parent="NbdiYjX3MhI7OpqD2NvG-1" source="fzffGFe7_WvlfE_VzDE6-15" target="fzffGFe7_WvlfE_VzDE6-9">
          <mxGeometry relative="1" as="geometry" />
        </mxCell>
        <mxCell id="fzffGFe7_WvlfE_VzDE6-15" value="deepSleep&lt;br&gt;Instant()" style="verticalLabelPosition=middle;verticalAlign=middle;html=1;shape=process;whiteSpace=wrap;rounded=1;size=0.14;arcSize=6;fillColor=#dae8fc;fontFamily=Open Sans;horizontal=1;labelPosition=center;align=center;strokeWidth=2;strokeColor=#6c8ebf;" parent="NbdiYjX3MhI7OpqD2NvG-1" vertex="1">
          <mxGeometry x="280" y="19.999999999999993" width="100" height="60" as="geometry" />
        </mxCell>
        <mxCell id="30TDII5LsR__wAe13-P4-4" style="edgeStyle=orthogonalEdgeStyle;rounded=0;orthogonalLoop=1;jettySize=auto;html=1;" edge="1" parent="NbdiYjX3MhI7OpqD2NvG-1" source="30TDII5LsR__wAe13-P4-3" target="fzffGFe7_WvlfE_VzDE6-15">
          <mxGeometry relative="1" as="geometry" />
        </mxCell>
        <mxCell id="30TDII5LsR__wAe13-P4-3" value="rtcUser&lt;br&gt;MemoryWrite()" style="verticalLabelPosition=middle;verticalAlign=middle;html=1;shape=process;whiteSpace=wrap;rounded=1;size=0.14;arcSize=6;fillColor=#dae8fc;fontFamily=Open Sans;horizontal=1;labelPosition=center;align=center;strokeWidth=2;strokeColor=#6c8ebf;" vertex="1" parent="NbdiYjX3MhI7OpqD2NvG-1">
          <mxGeometry x="130" y="20" width="120" height="60" as="geometry" />
        </mxCell>
        <mxCell id="30TDII5LsR__wAe13-P4-11" style="edgeStyle=orthogonalEdgeStyle;rounded=0;orthogonalLoop=1;jettySize=auto;html=1;" edge="1" parent="NbdiYjX3MhI7OpqD2NvG-1" source="30TDII5LsR__wAe13-P4-5" target="30TDII5LsR__wAe13-P4-10">
          <mxGeometry relative="1" as="geometry" />
        </mxCell>
        <mxCell id="30TDII5LsR__wAe13-P4-5" value="Sleep Delay" style="strokeWidth=2;html=1;shape=mxgraph.flowchart.delay;whiteSpace=wrap;fillColor=#e1d5e7;fontFamily=Open Sans;strokeColor=#9673a6;" vertex="1" parent="NbdiYjX3MhI7OpqD2NvG-1">
          <mxGeometry x="530" y="19.999999999999993" width="100" height="60" as="geometry" />
        </mxCell>
        <mxCell id="30TDII5LsR__wAe13-P4-12" style="edgeStyle=orthogonalEdgeStyle;rounded=0;orthogonalLoop=1;jettySize=auto;html=1;" edge="1" parent="NbdiYjX3MhI7OpqD2NvG-1" source="30TDII5LsR__wAe13-P4-9" target="30TDII5LsR__wAe13-P4-10">
          <mxGeometry relative="1" as="geometry" />
        </mxCell>
        <mxCell id="30TDII5LsR__wAe13-P4-9" value="Reset&lt;br&gt;Button" style="verticalLabelPosition=middle;verticalAlign=middle;html=1;shape=trapezoid;perimeter=trapezoidPerimeter;whiteSpace=wrap;size=0.23;arcSize=10;flipV=1;labelPosition=center;align=center;fillColor=#d5e8d4;fontFamily=Open Sans;strokeWidth=2;strokeColor=#82b366;" vertex="1" parent="NbdiYjX3MhI7OpqD2NvG-1">
          <mxGeometry x="530" y="110" width="100" height="60" as="geometry" />
        </mxCell>
        <mxCell id="30TDII5LsR__wAe13-P4-10" value="Initialization" style="strokeWidth=2;html=1;shape=mxgraph.flowchart.terminator;whiteSpace=wrap;fillColor=#E6E6E6;fontFamily=Open Sans;" vertex="1" parent="NbdiYjX3MhI7OpqD2NvG-1">
          <mxGeometry x="660" y="30" width="90" height="40" as="geometry" />
        </mxCell>
        <mxCell id="30TDII5LsR__wAe13-P4-34" value="" style="group" vertex="1" connectable="0" parent="NbdiYjX3MhI7OpqD2NvG-1">
          <mxGeometry x="-100" y="160" width="160" height="170" as="geometry" />
        </mxCell>
        <mxCell id="30TDII5LsR__wAe13-P4-13" value="Key" style="shape=table;startSize=30;container=1;collapsible=0;childLayout=tableLayout;fixedRows=1;rowLines=0;fontStyle=0;strokeColor=default;fontSize=16;fontFamily=Open Sans;" vertex="1" parent="30TDII5LsR__wAe13-P4-34">
          <mxGeometry width="160" height="170" as="geometry" />
        </mxCell>
        <mxCell id="30TDII5LsR__wAe13-P4-14" value="" style="shape=tableRow;horizontal=0;startSize=0;swimlaneHead=0;swimlaneBody=0;top=0;left=0;bottom=0;right=0;collapsible=0;dropTarget=0;fillColor=none;points=[[0,0.5],[1,0.5]];portConstraint=eastwest;strokeColor=inherit;fontSize=16;fontFamily=Open Sans;" vertex="1" parent="30TDII5LsR__wAe13-P4-13">
          <mxGeometry y="30" width="160" height="30" as="geometry" />
        </mxCell>
        <mxCell id="30TDII5LsR__wAe13-P4-15" value="1" style="shape=partialRectangle;html=1;whiteSpace=wrap;connectable=0;fillColor=none;top=0;left=0;bottom=0;right=0;overflow=hidden;pointerEvents=1;strokeColor=inherit;fontSize=16;fontFamily=Open Sans;" vertex="1" parent="30TDII5LsR__wAe13-P4-14">
          <mxGeometry width="36" height="30" as="geometry">
            <mxRectangle width="36" height="30" as="alternateBounds" />
          </mxGeometry>
        </mxCell>
        <mxCell id="30TDII5LsR__wAe13-P4-16" value="RTC Mem" style="shape=partialRectangle;html=1;whiteSpace=wrap;connectable=0;fillColor=none;top=0;left=0;bottom=0;right=0;align=left;spacingLeft=6;overflow=hidden;strokeColor=inherit;fontSize=16;fontFamily=Open Sans;" vertex="1" parent="30TDII5LsR__wAe13-P4-14">
          <mxGeometry x="36" width="124" height="30" as="geometry">
            <mxRectangle width="124" height="30" as="alternateBounds" />
          </mxGeometry>
        </mxCell>
        <mxCell id="30TDII5LsR__wAe13-P4-17" value="" style="shape=tableRow;horizontal=0;startSize=0;swimlaneHead=0;swimlaneBody=0;top=0;left=0;bottom=0;right=0;collapsible=0;dropTarget=0;fillColor=none;points=[[0,0.5],[1,0.5]];portConstraint=eastwest;strokeColor=inherit;fontSize=16;fontFamily=Open Sans;" vertex="1" parent="30TDII5LsR__wAe13-P4-13">
          <mxGeometry y="60" width="160" height="30" as="geometry" />
        </mxCell>
        <mxCell id="30TDII5LsR__wAe13-P4-18" value="2" style="shape=partialRectangle;html=1;whiteSpace=wrap;connectable=0;fillColor=none;top=0;left=0;bottom=0;right=0;overflow=hidden;strokeColor=inherit;fontSize=16;fontFamily=Open Sans;" vertex="1" parent="30TDII5LsR__wAe13-P4-17">
          <mxGeometry width="36" height="30" as="geometry">
            <mxRectangle width="36" height="30" as="alternateBounds" />
          </mxGeometry>
        </mxCell>
        <mxCell id="30TDII5LsR__wAe13-P4-19" value="ESP SDK" style="shape=partialRectangle;html=1;whiteSpace=wrap;connectable=0;fillColor=none;top=0;left=0;bottom=0;right=0;align=left;spacingLeft=6;overflow=hidden;strokeColor=inherit;fontSize=16;fontFamily=Open Sans;" vertex="1" parent="30TDII5LsR__wAe13-P4-17">
          <mxGeometry x="36" width="124" height="30" as="geometry">
            <mxRectangle width="124" height="30" as="alternateBounds" />
          </mxGeometry>
        </mxCell>
        <mxCell id="30TDII5LsR__wAe13-P4-20" value="" style="shape=tableRow;horizontal=0;startSize=0;swimlaneHead=0;swimlaneBody=0;top=0;left=0;bottom=0;right=0;collapsible=0;dropTarget=0;fillColor=none;points=[[0,0.5],[1,0.5]];portConstraint=eastwest;strokeColor=inherit;fontSize=16;fontFamily=Open Sans;" vertex="1" parent="30TDII5LsR__wAe13-P4-13">
          <mxGeometry y="90" width="160" height="30" as="geometry" />
        </mxCell>
        <mxCell id="30TDII5LsR__wAe13-P4-21" value="3" style="shape=partialRectangle;html=1;whiteSpace=wrap;connectable=0;fillColor=none;top=0;left=0;bottom=0;right=0;overflow=hidden;strokeColor=inherit;fontSize=16;fontFamily=Open Sans;" vertex="1" parent="30TDII5LsR__wAe13-P4-20">
          <mxGeometry width="36" height="30" as="geometry">
            <mxRectangle width="36" height="30" as="alternateBounds" />
          </mxGeometry>
        </mxCell>
        <mxCell id="30TDII5LsR__wAe13-P4-22" value="RTC Hardware" style="shape=partialRectangle;html=1;whiteSpace=wrap;connectable=0;fillColor=none;top=0;left=0;bottom=0;right=0;align=left;spacingLeft=6;overflow=hidden;strokeColor=inherit;fontSize=16;fontFamily=Open Sans;" vertex="1" parent="30TDII5LsR__wAe13-P4-20">
          <mxGeometry x="36" width="124" height="30" as="geometry">
            <mxRectangle width="124" height="30" as="alternateBounds" />
          </mxGeometry>
        </mxCell>
        <mxCell id="30TDII5LsR__wAe13-P4-25" value="" style="shape=tableRow;horizontal=0;startSize=0;swimlaneHead=0;swimlaneBody=0;top=0;left=0;bottom=0;right=0;collapsible=0;dropTarget=0;fillColor=none;points=[[0,0.5],[1,0.5]];portConstraint=eastwest;strokeColor=inherit;fontSize=16;fontFamily=Open Sans;" vertex="1" parent="30TDII5LsR__wAe13-P4-13">
          <mxGeometry y="120" width="160" height="50" as="geometry" />
        </mxCell>
        <mxCell id="30TDII5LsR__wAe13-P4-26" value="3" style="shape=partialRectangle;html=1;whiteSpace=wrap;connectable=0;fillColor=none;top=0;left=0;bottom=0;right=0;overflow=hidden;strokeColor=inherit;fontSize=16;fontFamily=Open Sans;" vertex="1" parent="30TDII5LsR__wAe13-P4-25">
          <mxGeometry width="36" height="50" as="geometry">
            <mxRectangle width="36" height="50" as="alternateBounds" />
          </mxGeometry>
        </mxCell>
        <mxCell id="30TDII5LsR__wAe13-P4-27" value="External&lt;br&gt;Hardware" style="shape=partialRectangle;html=1;whiteSpace=wrap;connectable=0;fillColor=none;top=0;left=0;bottom=0;right=0;align=left;spacingLeft=6;overflow=hidden;strokeColor=inherit;fontSize=16;fontFamily=Open Sans;" vertex="1" parent="30TDII5LsR__wAe13-P4-25">
          <mxGeometry x="36" width="124" height="50" as="geometry">
            <mxRectangle width="124" height="50" as="alternateBounds" />
          </mxGeometry>
        </mxCell>
        <mxCell id="30TDII5LsR__wAe13-P4-29" value="" style="rounded=1;whiteSpace=wrap;html=1;absoluteArcSize=1;arcSize=14;strokeWidth=2;fillColor=#ffe6cc;fontFamily=Open Sans;strokeColor=#d79b00;" vertex="1" parent="30TDII5LsR__wAe13-P4-34">
          <mxGeometry x="3" y="35.99555555555554" width="30" height="18.88888888888889" as="geometry" />
        </mxCell>
        <mxCell id="30TDII5LsR__wAe13-P4-30" value="" style="rounded=1;whiteSpace=wrap;html=1;absoluteArcSize=1;arcSize=14;strokeWidth=2;fillColor=#dae8fc;fontFamily=Open Sans;strokeColor=#6c8ebf;" vertex="1" parent="30TDII5LsR__wAe13-P4-34">
          <mxGeometry x="3" y="64.9988888888889" width="30" height="18.88888888888889" as="geometry" />
        </mxCell>
        <mxCell id="30TDII5LsR__wAe13-P4-31" value="" style="rounded=1;whiteSpace=wrap;html=1;absoluteArcSize=1;arcSize=14;strokeWidth=2;fillColor=#e1d5e7;fontFamily=Open Sans;strokeColor=#9673a6;" vertex="1" parent="30TDII5LsR__wAe13-P4-34">
          <mxGeometry x="3" y="95.00222222222223" width="30" height="18.88888888888889" as="geometry" />
        </mxCell>
        <mxCell id="30TDII5LsR__wAe13-P4-32" value="" style="rounded=1;whiteSpace=wrap;html=1;absoluteArcSize=1;arcSize=14;strokeWidth=2;fillColor=#d5e8d4;fontFamily=Open Sans;strokeColor=#82b366;" vertex="1" parent="30TDII5LsR__wAe13-P4-34">
          <mxGeometry x="3" y="135.00222222222223" width="30" height="18.88888888888889" as="geometry" />
        </mxCell>
      </root>
    </mxGraphModel>
  </diagram>
</mxfile>
